<svg width="100%" height="100%" viewBox="0 0 29 29" fill="none" xmlns="http://www.w3.org/2000/svg">
<g id="call">
<path id="Ellipse 5" d="M14.6988 29C12.8651 29 11.0494 28.6249 9.35523 27.8963C7.66111 27.1676 6.12178 26.0995 4.82516 24.753C3.52853 23.4066 2.49999 21.8081 1.79826 20.0489C1.09653 18.2897 0.735351 16.4042 0.735352 14.5H6.12941C6.12941 15.6686 6.35107 16.8257 6.78172 17.9054C7.21237 18.985 7.84359 19.966 8.63933 20.7923C9.43508 21.6186 10.3798 22.2741 11.4195 22.7213C12.4591 23.1685 13.5735 23.3987 14.6988 23.3987L14.6988 29Z" fill="white"/>
<path id="Ellipse 6" d="M14.6986 -6.39718e-07C16.5323 -8.06186e-07 18.3481 0.375052 20.0422 1.10375C21.7364 1.83244 23.2757 2.9005 24.5723 4.24695C25.8689 5.5934 26.8975 7.19187 27.5992 8.95109C28.3009 10.7103 28.6621 12.5958 28.6621 14.5L14.6986 14.5L14.6986 -6.39718e-07Z" fill="white"/>
<path id="Rectangle 16" d="M0.735352 5.14282C0.735352 4.59054 1.18307 4.14282 1.73535 4.14282H8.71185C9.26414 4.14282 9.71185 4.59054 9.71185 5.14282V13.5C9.71185 14.0523 9.26414 14.5 8.71185 14.5H0.735352V5.14282Z" fill="white"/>
<path id="Rectangle 17" d="M14.6992 29L14.6992 20.6786C14.6992 20.1263 15.1469 19.6786 15.6992 19.6786L23.6732 19.6786C24.2254 19.6786 24.6732 20.1263 24.6732 20.6786L24.6732 28C24.6732 28.5523 24.2254 29 23.6732 29L14.6992 29Z" fill="white"/>
</g>
</svg>
