<svg width="288" height="195" viewBox="0 0 288 195" fill="none" xmlns="http://www.w3.org/2000/svg">
<path d="M69.8877 159.264C69.2317 159.264 68.5837 159.176 67.9437 159C67.3197 158.824 66.7437 158.584 66.2157 158.28C65.6877 157.96 65.2317 157.576 64.8477 157.128L66.7197 155.232C67.1197 155.68 67.5837 156.016 68.1117 156.24C68.6397 156.464 69.2237 156.576 69.8637 156.576C70.3757 156.576 70.7597 156.504 71.0157 156.36C71.2877 156.216 71.4237 156 71.4237 155.712C71.4237 155.392 71.2797 155.144 70.9917 154.968C70.7197 154.792 70.3597 154.648 69.9117 154.536C69.4637 154.408 68.9917 154.272 68.4957 154.128C68.0157 153.968 67.5517 153.768 67.1037 153.528C66.6557 153.272 66.2877 152.928 65.9997 152.496C65.7277 152.048 65.5917 151.472 65.5917 150.768C65.5917 150.032 65.7677 149.392 66.1197 148.848C66.4877 148.304 67.0077 147.88 67.6797 147.576C68.3517 147.272 69.1437 147.12 70.0557 147.12C71.0157 147.12 71.8797 147.288 72.6477 147.624C73.4317 147.96 74.0797 148.464 74.5917 149.136L72.6957 151.032C72.3437 150.6 71.9437 150.288 71.4957 150.096C71.0637 149.904 70.5917 149.808 70.0797 149.808C69.6157 149.808 69.2557 149.88 68.9997 150.024C68.7597 150.168 68.6397 150.368 68.6397 150.624C68.6397 150.912 68.7757 151.136 69.0477 151.296C69.3357 151.456 69.7037 151.6 70.1517 151.728C70.5997 151.84 71.0637 151.976 71.5437 152.136C72.0397 152.28 72.5037 152.488 72.9357 152.76C73.3837 153.032 73.7437 153.392 74.0157 153.84C74.3037 154.288 74.4477 154.864 74.4477 155.568C74.4477 156.704 74.0397 157.608 73.2237 158.28C72.4077 158.936 71.2957 159.264 69.8877 159.264ZM82.0158 159.24C80.8478 159.24 79.7918 158.976 78.8478 158.448C77.9198 157.904 77.1758 157.176 76.6158 156.264C76.0718 155.336 75.7998 154.304 75.7998 153.168C75.7998 152.032 76.0718 151.016 76.6158 150.12C77.1598 149.208 77.9038 148.488 78.8478 147.96C79.7918 147.416 80.8398 147.144 81.9918 147.144C83.1758 147.144 84.2318 147.416 85.1598 147.96C86.1038 148.488 86.8478 149.208 87.3918 150.12C87.9358 151.016 88.2078 152.032 88.2078 153.168C88.2078 154.304 87.9358 155.336 87.3918 156.264C86.8478 157.176 86.1038 157.904 85.1598 158.448C84.2318 158.976 83.1838 159.24 82.0158 159.24ZM81.9918 156.312C82.5838 156.312 83.1038 156.184 83.5518 155.928C84.0158 155.656 84.3678 155.288 84.6078 154.824C84.8638 154.344 84.9918 153.8 84.9918 153.192C84.9918 152.584 84.8638 152.048 84.6078 151.584C84.3518 151.12 83.9998 150.76 83.5518 150.504C83.1038 150.232 82.5838 150.096 81.9918 150.096C81.4158 150.096 80.9038 150.232 80.4558 150.504C80.0078 150.76 79.6558 151.12 79.3998 151.584C79.1438 152.048 79.0158 152.584 79.0158 153.192C79.0158 153.8 79.1438 154.344 79.3998 154.824C79.6558 155.288 80.0078 155.656 80.4558 155.928C80.9038 156.184 81.4158 156.312 81.9918 156.312ZM90.2318 159V147.408H93.3758V159H90.2318ZM93.3758 152.592L92.1518 151.776C92.2958 150.352 92.7118 149.232 93.3998 148.416C94.0878 147.584 95.0798 147.168 96.3758 147.168C96.9358 147.168 97.4398 147.264 97.8878 147.456C98.3358 147.632 98.7438 147.928 99.1118 148.344L97.1438 150.6C96.9678 150.408 96.7518 150.264 96.4958 150.168C96.2558 150.072 95.9758 150.024 95.6558 150.024C94.9838 150.024 94.4318 150.24 93.9998 150.672C93.5838 151.088 93.3758 151.728 93.3758 152.592ZM100.193 159V147.408H103.337V159H100.193ZM103.337 152.592L102.113 151.776C102.257 150.352 102.673 149.232 103.361 148.416C104.049 147.584 105.041 147.168 106.337 147.168C106.897 147.168 107.401 147.264 107.849 147.456C108.297 147.632 108.705 147.928 109.073 148.344L107.105 150.6C106.929 150.408 106.713 150.264 106.457 150.168C106.217 150.072 105.937 150.024 105.617 150.024C104.945 150.024 104.393 150.24 103.961 150.672C103.545 151.088 103.337 151.728 103.337 152.592ZM113.708 159.096L108.86 147.408H112.268L115.484 156.336H114.332L117.668 147.408H121.1L115.94 159.072L113.708 159.096ZM110.492 163.848L114.02 156.384L115.94 159.072L113.828 163.848H110.492ZM133.812 159.24C132.98 159.24 132.228 159.064 131.556 158.712C130.884 158.36 130.348 157.88 129.948 157.272C129.548 156.664 129.332 155.984 129.3 155.232V151.104C129.332 150.352 129.548 149.68 129.948 149.088C130.364 148.48 130.908 148.008 131.58 147.672C132.252 147.336 132.996 147.168 133.812 147.168C134.884 147.168 135.844 147.432 136.692 147.96C137.54 148.488 138.204 149.208 138.684 150.12C139.18 151.032 139.428 152.064 139.428 153.216C139.428 154.352 139.18 155.376 138.684 156.288C138.204 157.2 137.54 157.92 136.692 158.448C135.844 158.976 134.884 159.24 133.812 159.24ZM133.284 156.336C133.86 156.336 134.364 156.208 134.796 155.952C135.244 155.68 135.588 155.312 135.828 154.848C136.084 154.368 136.212 153.816 136.212 153.192C136.212 152.584 136.084 152.048 135.828 151.584C135.588 151.104 135.244 150.736 134.796 150.48C134.348 150.208 133.836 150.072 133.26 150.072C132.684 150.072 132.172 150.208 131.724 150.48C131.292 150.736 130.948 151.104 130.692 151.584C130.452 152.048 130.332 152.584 130.332 153.192C130.332 153.816 130.452 154.368 130.692 154.848C130.948 155.312 131.3 155.68 131.748 155.952C132.196 156.208 132.708 156.336 133.284 156.336ZM127.38 159V141.648H130.524V150.264L129.996 153.048L130.5 155.88V159H127.38ZM146.938 159.24C145.77 159.24 144.714 158.976 143.77 158.448C142.842 157.904 142.098 157.176 141.538 156.264C140.994 155.336 140.722 154.304 140.722 153.168C140.722 152.032 140.994 151.016 141.538 150.12C142.082 149.208 142.826 148.488 143.77 147.96C144.714 147.416 145.762 147.144 146.914 147.144C148.098 147.144 149.154 147.416 150.082 147.96C151.026 148.488 151.77 149.208 152.314 150.12C152.858 151.016 153.13 152.032 153.13 153.168C153.13 154.304 152.858 155.336 152.314 156.264C151.77 157.176 151.026 157.904 150.082 158.448C149.154 158.976 148.106 159.24 146.938 159.24ZM146.914 156.312C147.506 156.312 148.026 156.184 148.474 155.928C148.938 155.656 149.29 155.288 149.53 154.824C149.786 154.344 149.914 153.8 149.914 153.192C149.914 152.584 149.786 152.048 149.53 151.584C149.274 151.12 148.922 150.76 148.474 150.504C148.026 150.232 147.506 150.096 146.914 150.096C146.338 150.096 145.826 150.232 145.378 150.504C144.93 150.76 144.578 151.12 144.322 151.584C144.066 152.048 143.938 152.584 143.938 153.192C143.938 153.8 144.066 154.344 144.322 154.824C144.578 155.288 144.93 155.656 145.378 155.928C145.826 156.184 146.338 156.312 146.914 156.312ZM159.138 159.264C158.482 159.264 157.834 159.176 157.194 159C156.57 158.824 155.994 158.584 155.466 158.28C154.938 157.96 154.482 157.576 154.098 157.128L155.97 155.232C156.37 155.68 156.834 156.016 157.362 156.24C157.89 156.464 158.474 156.576 159.114 156.576C159.626 156.576 160.01 156.504 160.266 156.36C160.538 156.216 160.674 156 160.674 155.712C160.674 155.392 160.53 155.144 160.242 154.968C159.97 154.792 159.61 154.648 159.162 154.536C158.714 154.408 158.242 154.272 157.746 154.128C157.266 153.968 156.802 153.768 156.354 153.528C155.906 153.272 155.538 152.928 155.25 152.496C154.978 152.048 154.842 151.472 154.842 150.768C154.842 150.032 155.018 149.392 155.37 148.848C155.738 148.304 156.258 147.88 156.93 147.576C157.602 147.272 158.394 147.12 159.306 147.12C160.266 147.12 161.13 147.288 161.898 147.624C162.682 147.96 163.33 148.464 163.842 149.136L161.946 151.032C161.594 150.6 161.194 150.288 160.746 150.096C160.314 149.904 159.842 149.808 159.33 149.808C158.866 149.808 158.506 149.88 158.25 150.024C158.01 150.168 157.89 150.368 157.89 150.624C157.89 150.912 158.026 151.136 158.298 151.296C158.586 151.456 158.954 151.6 159.402 151.728C159.85 151.84 160.314 151.976 160.794 152.136C161.29 152.28 161.754 152.488 162.186 152.76C162.634 153.032 162.994 153.392 163.266 153.84C163.554 154.288 163.698 154.864 163.698 155.568C163.698 156.704 163.29 157.608 162.474 158.28C161.658 158.936 160.546 159.264 159.138 159.264ZM169.802 159.264C169.146 159.264 168.498 159.176 167.858 159C167.234 158.824 166.658 158.584 166.13 158.28C165.602 157.96 165.146 157.576 164.762 157.128L166.634 155.232C167.034 155.68 167.498 156.016 168.026 156.24C168.554 156.464 169.138 156.576 169.778 156.576C170.29 156.576 170.674 156.504 170.93 156.36C171.202 156.216 171.338 156 171.338 155.712C171.338 155.392 171.194 155.144 170.906 154.968C170.634 154.792 170.274 154.648 169.826 154.536C169.378 154.408 168.906 154.272 168.41 154.128C167.93 153.968 167.466 153.768 167.018 153.528C166.57 153.272 166.202 152.928 165.914 152.496C165.642 152.048 165.506 151.472 165.506 150.768C165.506 150.032 165.682 149.392 166.034 148.848C166.402 148.304 166.922 147.88 167.594 147.576C168.266 147.272 169.058 147.12 169.97 147.12C170.93 147.12 171.794 147.288 172.562 147.624C173.346 147.96 173.994 148.464 174.506 149.136L172.61 151.032C172.258 150.6 171.858 150.288 171.41 150.096C170.978 149.904 170.506 149.808 169.994 149.808C169.53 149.808 169.17 149.88 168.914 150.024C168.674 150.168 168.554 150.368 168.554 150.624C168.554 150.912 168.69 151.136 168.962 151.296C169.25 151.456 169.618 151.6 170.066 151.728C170.514 151.84 170.978 151.976 171.458 152.136C171.954 152.28 172.418 152.488 172.85 152.76C173.298 153.032 173.658 153.392 173.93 153.84C174.218 154.288 174.362 154.864 174.362 155.568C174.362 156.704 173.954 157.608 173.138 158.28C172.322 158.936 171.21 159.264 169.802 159.264ZM176.482 159V147.408H179.626V159H176.482ZM184.042 159V152.16C184.042 151.488 183.826 150.968 183.394 150.6C182.978 150.216 182.458 150.024 181.834 150.024C181.418 150.024 181.042 150.112 180.706 150.288C180.37 150.448 180.106 150.688 179.914 151.008C179.722 151.328 179.626 151.712 179.626 152.16L178.402 151.56C178.402 150.664 178.594 149.888 178.978 149.232C179.378 148.576 179.914 148.072 180.586 147.72C181.258 147.352 182.018 147.168 182.866 147.168C183.666 147.168 184.394 147.352 185.05 147.72C185.706 148.072 186.226 148.576 186.61 149.232C186.994 149.872 187.186 150.648 187.186 151.56V159H184.042ZM191.602 159V152.16C191.602 151.488 191.386 150.968 190.954 150.6C190.538 150.216 190.018 150.024 189.394 150.024C188.994 150.024 188.618 150.112 188.266 150.288C187.93 150.448 187.666 150.688 187.474 151.008C187.282 151.328 187.186 151.712 187.186 152.16L185.386 151.728C185.45 150.8 185.698 150 186.13 149.328C186.562 148.64 187.13 148.112 187.834 147.744C188.538 147.36 189.322 147.168 190.186 147.168C191.05 147.168 191.826 147.352 192.514 147.72C193.202 148.072 193.746 148.584 194.146 149.256C194.546 149.928 194.746 150.728 194.746 151.656V159H191.602ZM202.142 159.24C201.086 159.24 200.134 158.976 199.286 158.448C198.438 157.92 197.774 157.2 197.294 156.288C196.814 155.376 196.574 154.352 196.574 153.216C196.574 152.064 196.814 151.032 197.294 150.12C197.774 149.208 198.438 148.488 199.286 147.96C200.134 147.432 201.086 147.168 202.142 147.168C202.974 147.168 203.718 147.336 204.374 147.672C205.03 148.008 205.55 148.48 205.934 149.088C206.334 149.68 206.55 150.352 206.582 151.104V155.28C206.55 156.048 206.334 156.728 205.934 157.32C205.55 157.912 205.03 158.384 204.374 158.736C203.718 159.072 202.974 159.24 202.142 159.24ZM202.718 156.336C203.598 156.336 204.31 156.048 204.854 155.472C205.398 154.88 205.67 154.12 205.67 153.192C205.67 152.584 205.542 152.048 205.286 151.584C205.046 151.104 204.702 150.736 204.254 150.48C203.822 150.208 203.31 150.072 202.718 150.072C202.142 150.072 201.63 150.208 201.182 150.48C200.75 150.736 200.406 151.104 200.15 151.584C199.91 152.048 199.79 152.584 199.79 153.192C199.79 153.816 199.91 154.368 200.15 154.848C200.406 155.312 200.75 155.68 201.182 155.952C201.63 156.208 202.142 156.336 202.718 156.336ZM205.502 159V155.88L206.006 153.048L205.502 150.264V147.408H208.622V159H205.502ZM219.204 159V152.352C219.204 151.664 218.988 151.104 218.556 150.672C218.124 150.24 217.564 150.024 216.876 150.024C216.428 150.024 216.028 150.12 215.676 150.312C215.324 150.504 215.044 150.776 214.836 151.128C214.644 151.48 214.548 151.888 214.548 152.352L213.324 151.728C213.324 150.816 213.516 150.024 213.9 149.352C214.3 148.664 214.844 148.128 215.532 147.744C216.236 147.36 217.028 147.168 217.908 147.168C218.756 147.168 219.516 147.384 220.188 147.816C220.86 148.232 221.388 148.784 221.772 149.472C222.156 150.144 222.348 150.872 222.348 151.656V159H219.204ZM211.404 159V147.408H214.548V159H211.404ZM8.24588 189.24C7.41388 189.24 6.66188 189.064 5.98988 188.712C5.31788 188.36 4.78188 187.88 4.38188 187.272C3.98188 186.664 3.76588 185.984 3.73388 185.232V181.104C3.76588 180.352 3.98188 179.68 4.38188 179.088C4.79788 178.48 5.34188 178.008 6.01388 177.672C6.68588 177.336 7.42988 177.168 8.24588 177.168C9.31788 177.168 10.2779 177.432 11.1259 177.96C11.9739 178.488 12.6379 179.208 13.1179 180.12C13.6139 181.032 13.8619 182.064 13.8619 183.216C13.8619 184.352 13.6139 185.376 13.1179 186.288C12.6379 187.2 11.9739 187.92 11.1259 188.448C10.2779 188.976 9.31788 189.24 8.24588 189.24ZM7.71788 186.336C8.29388 186.336 8.79788 186.208 9.22988 185.952C9.67788 185.68 10.0219 185.312 10.2619 184.848C10.5179 184.368 10.6459 183.816 10.6459 183.192C10.6459 182.584 10.5179 182.048 10.2619 181.584C10.0219 181.104 9.67788 180.736 9.22988 180.48C8.78188 180.208 8.26988 180.072 7.69388 180.072C7.11788 180.072 6.60588 180.208 6.15788 180.48C5.72588 180.736 5.38188 181.104 5.12588 181.584C4.88588 182.048 4.76588 182.584 4.76588 183.192C4.76588 183.816 4.88588 184.368 5.12588 184.848C5.38188 185.312 5.73388 185.68 6.18188 185.952C6.62988 186.208 7.14188 186.336 7.71788 186.336ZM1.81388 189V171.648H4.95788V180.264L4.42988 183.048L4.93388 185.88V189H1.81388ZM20.8672 189.24C19.8433 189.24 18.9313 189.024 18.1313 188.592C17.3473 188.16 16.7313 187.56 16.2833 186.792C15.8353 186.024 15.6113 185.136 15.6113 184.128V177.408H18.7793V184.056C18.7793 184.536 18.8593 184.952 19.0193 185.304C19.1793 185.64 19.4193 185.896 19.7393 186.072C20.0593 186.248 20.4353 186.336 20.8672 186.336C21.5233 186.336 22.0353 186.136 22.4033 185.736C22.7713 185.336 22.9553 184.776 22.9553 184.056V177.408H26.0993V184.128C26.0993 185.152 25.8753 186.048 25.4273 186.816C24.9953 187.584 24.3793 188.184 23.5793 188.616C22.7953 189.032 21.8913 189.24 20.8672 189.24ZM30.3069 189V172.584H33.4509V189H30.3069ZM27.5949 180.168V177.408H36.1629V180.168H27.5949ZM46.6026 189.264C45.9466 189.264 45.2986 189.176 44.6586 189C44.0346 188.824 43.4586 188.584 42.9306 188.28C42.4026 187.96 41.9466 187.576 41.5626 187.128L43.4346 185.232C43.8346 185.68 44.2986 186.016 44.8266 186.24C45.3546 186.464 45.9386 186.576 46.5786 186.576C47.0906 186.576 47.4746 186.504 47.7306 186.36C48.0026 186.216 48.1386 186 48.1386 185.712C48.1386 185.392 47.9946 185.144 47.7066 184.968C47.4346 184.792 47.0746 184.648 46.6266 184.536C46.1786 184.408 45.7066 184.272 45.2106 184.128C44.7306 183.968 44.2666 183.768 43.8186 183.528C43.3706 183.272 43.0026 182.928 42.7146 182.496C42.4426 182.048 42.3066 181.472 42.3066 180.768C42.3066 180.032 42.4826 179.392 42.8346 178.848C43.2026 178.304 43.7226 177.88 44.3946 177.576C45.0666 177.272 45.8586 177.12 46.7706 177.12C47.7306 177.12 48.5946 177.288 49.3626 177.624C50.1466 177.96 50.7946 178.464 51.3066 179.136L49.4106 181.032C49.0586 180.6 48.6586 180.288 48.2106 180.096C47.7786 179.904 47.3066 179.808 46.7946 179.808C46.3306 179.808 45.9706 179.88 45.7146 180.024C45.4746 180.168 45.3546 180.368 45.3546 180.624C45.3546 180.912 45.4906 181.136 45.7626 181.296C46.0506 181.456 46.4186 181.6 46.8666 181.728C47.3146 181.84 47.7786 181.976 48.2586 182.136C48.7546 182.28 49.2186 182.488 49.6506 182.76C50.0986 183.032 50.4586 183.392 50.7306 183.84C51.0186 184.288 51.1626 184.864 51.1626 185.568C51.1626 186.704 50.7546 187.608 49.9386 188.28C49.1226 188.936 48.0106 189.264 46.6026 189.264ZM58.7306 189.24C57.5626 189.24 56.5066 188.976 55.5626 188.448C54.6346 187.904 53.8906 187.176 53.3306 186.264C52.7866 185.336 52.5146 184.304 52.5146 183.168C52.5146 182.032 52.7866 181.016 53.3306 180.12C53.8746 179.208 54.6186 178.488 55.5626 177.96C56.5066 177.416 57.5546 177.144 58.7066 177.144C59.8906 177.144 60.9466 177.416 61.8746 177.96C62.8186 178.488 63.5626 179.208 64.1066 180.12C64.6506 181.016 64.9226 182.032 64.9226 183.168C64.9226 184.304 64.6506 185.336 64.1066 186.264C63.5626 187.176 62.8186 187.904 61.8746 188.448C60.9466 188.976 59.8986 189.24 58.7306 189.24ZM58.7066 186.312C59.2986 186.312 59.8186 186.184 60.2666 185.928C60.7306 185.656 61.0826 185.288 61.3226 184.824C61.5786 184.344 61.7066 183.8 61.7066 183.192C61.7066 182.584 61.5786 182.048 61.3226 181.584C61.0666 181.12 60.7146 180.76 60.2666 180.504C59.8186 180.232 59.2986 180.096 58.7066 180.096C58.1306 180.096 57.6186 180.232 57.1706 180.504C56.7226 180.76 56.3706 181.12 56.1146 181.584C55.8586 182.048 55.7306 182.584 55.7306 183.192C55.7306 183.8 55.8586 184.344 56.1146 184.824C56.3706 185.288 56.7226 185.656 57.1706 185.928C57.6186 186.184 58.1306 186.312 58.7066 186.312ZM66.9467 189V177.408H70.0907V189H66.9467ZM74.5067 189V182.16C74.5067 181.488 74.2907 180.968 73.8587 180.6C73.4427 180.216 72.9227 180.024 72.2987 180.024C71.8827 180.024 71.5067 180.112 71.1707 180.288C70.8347 180.448 70.5707 180.688 70.3787 181.008C70.1867 181.328 70.0907 181.712 70.0907 182.16L68.8667 181.56C68.8667 180.664 69.0587 179.888 69.4427 179.232C69.8427 178.576 70.3787 178.072 71.0507 177.72C71.7227 177.352 72.4827 177.168 73.3307 177.168C74.1307 177.168 74.8587 177.352 75.5147 177.72C76.1707 178.072 76.6907 178.576 77.0747 179.232C77.4587 179.872 77.6507 180.648 77.6507 181.56V189H74.5067ZM82.0667 189V182.16C82.0667 181.488 81.8507 180.968 81.4187 180.6C81.0027 180.216 80.4827 180.024 79.8587 180.024C79.4587 180.024 79.0827 180.112 78.7307 180.288C78.3947 180.448 78.1307 180.688 77.9387 181.008C77.7467 181.328 77.6507 181.712 77.6507 182.16L75.8507 181.728C75.9147 180.8 76.1627 180 76.5947 179.328C77.0267 178.64 77.5947 178.112 78.2987 177.744C79.0027 177.36 79.7867 177.168 80.6507 177.168C81.5147 177.168 82.2907 177.352 82.9787 177.72C83.6667 178.072 84.2107 178.584 84.6107 179.256C85.0107 179.928 85.2107 180.728 85.2107 181.656V189H82.0667ZM93.3032 189.24C92.0872 189.24 91.0072 188.984 90.0632 188.472C89.1192 187.944 88.3672 187.224 87.8072 186.312C87.2632 185.4 86.9912 184.36 86.9912 183.192C86.9912 182.04 87.2552 181.016 87.7832 180.12C88.3272 179.208 89.0632 178.488 89.9912 177.96C90.9192 177.416 91.9512 177.144 93.0872 177.144C94.2072 177.144 95.1912 177.4 96.0392 177.912C96.9032 178.408 97.5752 179.096 98.0552 179.976C98.5512 180.84 98.7992 181.824 98.7992 182.928C98.7992 183.136 98.7832 183.352 98.7512 183.576C98.7352 183.784 98.6952 184.024 98.6312 184.296L88.8872 184.32V181.968L97.1672 181.944L95.8952 182.928C95.8632 182.24 95.7352 181.664 95.5112 181.2C95.3032 180.736 94.9912 180.384 94.5752 180.144C94.1752 179.888 93.6792 179.76 93.0872 179.76C92.4632 179.76 91.9192 179.904 91.4552 180.192C90.9912 180.464 90.6312 180.856 90.3752 181.368C90.1352 181.864 90.0152 182.456 90.0152 183.144C90.0152 183.848 90.1432 184.464 90.3992 184.992C90.6712 185.504 91.0552 185.904 91.5512 186.192C92.0472 186.464 92.6232 186.6 93.2792 186.6C93.8712 186.6 94.4072 186.504 94.8872 186.312C95.3672 186.104 95.7832 185.8 96.1352 185.4L97.9832 187.248C97.4232 187.904 96.7352 188.4 95.9192 188.736C95.1192 189.072 94.2472 189.24 93.3032 189.24ZM102.19 189V172.584H105.334V189H102.19ZM99.4778 180.168V177.408H108.046V180.168H99.4778ZM117.614 189V182.352C117.614 181.664 117.398 181.104 116.966 180.672C116.534 180.24 115.974 180.024 115.286 180.024C114.838 180.024 114.438 180.12 114.086 180.312C113.734 180.504 113.454 180.776 113.246 181.128C113.054 181.48 112.958 181.888 112.958 182.352L111.734 181.728C111.734 180.816 111.926 180.024 112.31 179.352C112.694 178.664 113.222 178.128 113.894 177.744C114.582 177.36 115.366 177.168 116.246 177.168C117.126 177.168 117.902 177.36 118.574 177.744C119.262 178.128 119.798 178.656 120.182 179.328C120.566 180 120.758 180.776 120.758 181.656V189H117.614ZM109.814 189V171.648H112.958V189H109.814ZM123.29 189V177.408H126.458V189H123.29ZM124.874 175.536C124.362 175.536 123.938 175.368 123.602 175.032C123.266 174.68 123.098 174.248 123.098 173.736C123.098 173.24 123.266 172.816 123.602 172.464C123.938 172.112 124.362 171.936 124.874 171.936C125.402 171.936 125.826 172.112 126.146 172.464C126.482 172.816 126.65 173.24 126.65 173.736C126.65 174.248 126.482 174.68 126.146 175.032C125.826 175.368 125.402 175.536 124.874 175.536ZM137.044 189V182.352C137.044 181.664 136.828 181.104 136.396 180.672C135.964 180.24 135.404 180.024 134.716 180.024C134.268 180.024 133.868 180.12 133.516 180.312C133.164 180.504 132.884 180.776 132.676 181.128C132.484 181.48 132.388 181.888 132.388 182.352L131.164 181.728C131.164 180.816 131.356 180.024 131.74 179.352C132.14 178.664 132.684 178.128 133.372 177.744C134.076 177.36 134.868 177.168 135.748 177.168C136.596 177.168 137.356 177.384 138.028 177.816C138.7 178.232 139.228 178.784 139.612 179.472C139.996 180.144 140.188 180.872 140.188 181.656V189H137.044ZM129.244 189V177.408H132.388V189H129.244ZM147.568 194.136C146.336 194.136 145.248 193.912 144.304 193.464C143.36 193.032 142.608 192.416 142.048 191.616L144.04 189.624C144.488 190.152 144.984 190.552 145.528 190.824C146.088 191.112 146.76 191.256 147.544 191.256C148.52 191.256 149.288 191.008 149.848 190.512C150.424 190.016 150.712 189.328 150.712 188.448V185.544L151.24 183L150.736 180.456V177.408H153.856V188.4C153.856 189.552 153.584 190.552 153.04 191.4C152.512 192.264 151.776 192.936 150.832 193.416C149.888 193.896 148.8 194.136 147.568 194.136ZM147.424 188.688C146.384 188.688 145.448 188.44 144.616 187.944C143.784 187.432 143.128 186.736 142.648 185.856C142.184 184.976 141.952 183.992 141.952 182.904C141.952 181.816 142.184 180.84 142.648 179.976C143.128 179.112 143.784 178.432 144.616 177.936C145.448 177.424 146.384 177.168 147.424 177.168C148.288 177.168 149.048 177.336 149.704 177.672C150.376 178.008 150.904 178.472 151.288 179.064C151.672 179.64 151.88 180.32 151.912 181.104V184.752C151.88 185.52 151.664 186.208 151.264 186.816C150.88 187.408 150.352 187.872 149.68 188.208C149.024 188.528 148.272 188.688 147.424 188.688ZM148.048 185.832C148.624 185.832 149.12 185.712 149.536 185.472C149.968 185.216 150.304 184.872 150.544 184.44C150.784 183.992 150.904 183.488 150.904 182.928C150.904 182.352 150.784 181.848 150.544 181.416C150.304 180.984 149.968 180.648 149.536 180.408C149.12 180.152 148.624 180.024 148.048 180.024C147.472 180.024 146.968 180.152 146.536 180.408C146.104 180.648 145.768 180.992 145.528 181.44C145.288 181.872 145.168 182.368 145.168 182.928C145.168 183.472 145.288 183.968 145.528 184.416C145.768 184.848 146.104 185.192 146.536 185.448C146.968 185.704 147.472 185.832 148.048 185.832ZM164.402 189L160.058 177.408H163.226L166.058 185.832L165.098 185.856L168.002 177.408H170.282L173.186 185.856L172.226 185.832L175.058 177.408H178.226L173.906 189H171.626L168.698 180.984H169.586L166.658 189H164.402ZM185.038 189.24C183.822 189.24 182.742 188.984 181.798 188.472C180.854 187.944 180.102 187.224 179.542 186.312C178.998 185.4 178.726 184.36 178.726 183.192C178.726 182.04 178.99 181.016 179.518 180.12C180.062 179.208 180.798 178.488 181.726 177.96C182.654 177.416 183.686 177.144 184.822 177.144C185.942 177.144 186.926 177.4 187.774 177.912C188.638 178.408 189.31 179.096 189.79 179.976C190.286 180.84 190.534 181.824 190.534 182.928C190.534 183.136 190.518 183.352 190.486 183.576C190.47 183.784 190.43 184.024 190.366 184.296L180.622 184.32V181.968L188.902 181.944L187.63 182.928C187.598 182.24 187.47 181.664 187.246 181.2C187.038 180.736 186.726 180.384 186.31 180.144C185.91 179.888 185.414 179.76 184.822 179.76C184.198 179.76 183.654 179.904 183.19 180.192C182.726 180.464 182.366 180.856 182.11 181.368C181.87 181.864 181.75 182.456 181.75 183.144C181.75 183.848 181.878 184.464 182.134 184.992C182.406 185.504 182.79 185.904 183.286 186.192C183.782 186.464 184.358 186.6 185.014 186.6C185.606 186.6 186.142 186.504 186.622 186.312C187.102 186.104 187.518 185.8 187.87 185.4L189.718 187.248C189.158 187.904 188.47 188.4 187.654 188.736C186.854 189.072 185.982 189.24 185.038 189.24ZM200.278 189V182.352C200.278 181.664 200.062 181.104 199.63 180.672C199.198 180.24 198.638 180.024 197.95 180.024C197.502 180.024 197.102 180.12 196.75 180.312C196.398 180.504 196.118 180.776 195.91 181.128C195.718 181.48 195.622 181.888 195.622 182.352L194.398 181.728C194.398 180.816 194.59 180.024 194.974 179.352C195.374 178.664 195.918 178.128 196.606 177.744C197.31 177.36 198.102 177.168 198.982 177.168C199.83 177.168 200.59 177.384 201.262 177.816C201.934 178.232 202.462 178.784 202.846 179.472C203.23 180.144 203.422 180.872 203.422 181.656V189H200.278ZM192.478 189V177.408H195.622V189H192.478ZM207.518 189V172.584H210.662V189H207.518ZM204.806 180.168V177.408H213.374V180.168H204.806ZM222.926 189L218.582 177.408H221.75L224.582 185.832L223.622 185.856L226.526 177.408H228.806L231.71 185.856L230.75 185.832L233.582 177.408H236.75L232.43 189H230.15L227.222 180.984H228.11L225.182 189H222.926ZM238.275 189V177.408H241.419V189H238.275ZM241.419 182.592L240.195 181.776C240.339 180.352 240.755 179.232 241.443 178.416C242.131 177.584 243.123 177.168 244.419 177.168C244.979 177.168 245.483 177.264 245.931 177.456C246.379 177.632 246.787 177.928 247.155 178.344L245.187 180.6C245.011 180.408 244.795 180.264 244.539 180.168C244.299 180.072 244.019 180.024 243.699 180.024C243.027 180.024 242.475 180.24 242.043 180.672C241.627 181.088 241.419 181.728 241.419 182.592ZM253.379 189.24C252.211 189.24 251.155 188.976 250.211 188.448C249.283 187.904 248.539 187.176 247.979 186.264C247.435 185.336 247.163 184.304 247.163 183.168C247.163 182.032 247.435 181.016 247.979 180.12C248.523 179.208 249.267 178.488 250.211 177.96C251.155 177.416 252.203 177.144 253.355 177.144C254.539 177.144 255.595 177.416 256.523 177.96C257.467 178.488 258.211 179.208 258.755 180.12C259.299 181.016 259.571 182.032 259.571 183.168C259.571 184.304 259.299 185.336 258.755 186.264C258.211 187.176 257.467 187.904 256.523 188.448C255.595 188.976 254.547 189.24 253.379 189.24ZM253.355 186.312C253.947 186.312 254.467 186.184 254.915 185.928C255.379 185.656 255.731 185.288 255.971 184.824C256.227 184.344 256.355 183.8 256.355 183.192C256.355 182.584 256.227 182.048 255.971 181.584C255.715 181.12 255.363 180.76 254.915 180.504C254.467 180.232 253.947 180.096 253.355 180.096C252.779 180.096 252.267 180.232 251.819 180.504C251.371 180.76 251.019 181.12 250.763 181.584C250.507 182.048 250.379 182.584 250.379 183.192C250.379 183.8 250.507 184.344 250.763 184.824C251.019 185.288 251.371 185.656 251.819 185.928C252.267 186.184 252.779 186.312 253.355 186.312ZM269.395 189V182.352C269.395 181.664 269.179 181.104 268.747 180.672C268.315 180.24 267.755 180.024 267.067 180.024C266.619 180.024 266.219 180.12 265.867 180.312C265.515 180.504 265.235 180.776 265.027 181.128C264.835 181.48 264.739 181.888 264.739 182.352L263.515 181.728C263.515 180.816 263.707 180.024 264.091 179.352C264.491 178.664 265.035 178.128 265.723 177.744C266.427 177.36 267.219 177.168 268.099 177.168C268.947 177.168 269.707 177.384 270.379 177.816C271.051 178.232 271.579 178.784 271.963 179.472C272.347 180.144 272.539 180.872 272.539 181.656V189H269.395ZM261.595 189V177.408H264.739V189H261.595ZM279.92 194.136C278.688 194.136 277.6 193.912 276.656 193.464C275.712 193.032 274.96 192.416 274.4 191.616L276.392 189.624C276.84 190.152 277.336 190.552 277.88 190.824C278.44 191.112 279.112 191.256 279.896 191.256C280.872 191.256 281.64 191.008 282.2 190.512C282.776 190.016 283.064 189.328 283.064 188.448V185.544L283.592 183L283.088 180.456V177.408H286.208V188.4C286.208 189.552 285.936 190.552 285.392 191.4C284.864 192.264 284.128 192.936 283.184 193.416C282.24 193.896 281.152 194.136 279.92 194.136ZM279.776 188.688C278.736 188.688 277.8 188.44 276.968 187.944C276.136 187.432 275.48 186.736 275 185.856C274.536 184.976 274.304 183.992 274.304 182.904C274.304 181.816 274.536 180.84 275 179.976C275.48 179.112 276.136 178.432 276.968 177.936C277.8 177.424 278.736 177.168 279.776 177.168C280.64 177.168 281.4 177.336 282.056 177.672C282.728 178.008 283.256 178.472 283.64 179.064C284.024 179.64 284.232 180.32 284.264 181.104V184.752C284.232 185.52 284.016 186.208 283.616 186.816C283.232 187.408 282.704 187.872 282.032 188.208C281.376 188.528 280.624 188.688 279.776 188.688ZM280.4 185.832C280.976 185.832 281.472 185.712 281.888 185.472C282.32 185.216 282.656 184.872 282.896 184.44C283.136 183.992 283.256 183.488 283.256 182.928C283.256 182.352 283.136 181.848 282.896 181.416C282.656 180.984 282.32 180.648 281.888 180.408C281.472 180.152 280.976 180.024 280.4 180.024C279.824 180.024 279.32 180.152 278.888 180.408C278.456 180.648 278.12 180.992 277.88 181.44C277.64 181.872 277.52 182.368 277.52 182.928C277.52 183.472 277.64 183.968 277.88 184.416C278.12 184.848 278.456 185.192 278.888 185.448C279.32 185.704 279.824 185.832 280.4 185.832Z" fill="#545A71"/>
<path d="M127.168 4.50334C127.168 4.50334 115.281 18.2717 115.281 21.4009C115.281 24.53 125.385 44.5567 152.725 45.8084C158.663 46.0803 182.443 48.3117 191.952 32.0401C201.462 15.7684 185.415 2 185.415 2" stroke="#545A71" stroke-width="3"/>
<path d="M115.262 47.5079C115.262 47.5079 98.0444 67.1814 98.0444 71.6527C98.0444 76.124 112.049 112.773 152.509 112.773C183.631 112.773 212.16 95.7326 212.16 78.011C212.16 60.2894 199.625 43.9309 199.625 43.9309" stroke="#545A71" stroke-width="3"/>
<path d="M137.272 18.2717C137.272 19.3086 136.473 20.1492 135.489 20.1492C134.504 20.1492 133.706 19.3086 133.706 18.2717C134.5 17.5 134.5 17.5 135.489 16.3942C136.473 16.3942 137.272 17.2348 137.272 18.2717Z" fill="#545A71"/>
<path d="M152.724 18.2717C152.724 19.3086 151.926 20.1492 150.941 20.1492C149.957 20.1492 149.158 19.3086 149.158 18.2717C149.158 17.2348 149.957 16.3942 150.941 16.3942C152 17.5 152 17.5 152.724 18.2717Z" fill="#545A71"/>
<ellipse cx="180.065" cy="105.263" rx="9.50966" ry="10.0134" fill="#545A71"/>
<ellipse cx="128.951" cy="105.263" rx="9.50966" ry="10.0134" fill="#545A71"/>
<ellipse cx="138.349" cy="83.6325" rx="5.34918" ry="5.63251" stroke="#545A71" stroke-width="2"/>
<ellipse cx="166.944" cy="83.2583" rx="5.94354" ry="6.25834" stroke="#545A71" stroke-width="2"/>
</svg>
