<svg width="3vw" height="auto" viewBox="0 0 139 128" fill="none" xmlns="http://www.w3.org/2000/svg">
<path d="M52.1681 16.5033C52.1681 16.5033 40.2808 30.2717 40.2808 33.4009C40.2808 36.53 50.3851 56.5567 77.7253 57.8084C83.6633 58.0803 107.443 60.3117 116.952 44.0401C126.462 27.7684 110.415 14 110.415 14" stroke="#545A71" stroke-width="3"/>
<path d="M40.2619 59.5079C40.2619 59.5079 23.0444 79.1814 23.0444 83.6527C23.0444 88.124 37.0487 124.773 77.5089 124.773C108.631 124.773 137.16 107.733 137.16 90.011C137.16 72.2894 124.625 55.9309 124.625 55.9309" stroke="#545A71" stroke-width="3"/>
<ellipse cx="60.4881" cy="30.2717" rx="1.78306" ry="1.8775" fill="#545A71"/>
<ellipse cx="75.9413" cy="30.2717" rx="1.78306" ry="1.8775" fill="#545A71"/>
<ellipse cx="105.065" cy="117.263" rx="9.50966" ry="10.0134" fill="#545A71"/>
<ellipse cx="53.9511" cy="117.263" rx="9.50966" ry="10.0134" fill="#545A71"/>
<ellipse cx="10.3492" cy="71.6325" rx="5.34918" ry="5.63251" fill="#545A71" stroke="#545A71" stroke-width="2"/>
<ellipse cx="111.008" cy="89.7261" rx="5.94354" ry="6.25834" stroke="#545A71" stroke-width="2"/>
<path d="M16.0259 59.6975L21.1394 64.1492L7.08325 80.295C5.99534 81.5446 4.10038 81.6757 2.85073 80.5878L2.26263 80.0759C1.01298 78.9879 0.881867 77.093 1.96978 75.8433L16.0259 59.6975Z" fill="#545A71"/>
<path d="M27.8401 59.196C28.1176 59.4375 28.24 59.8119 28.1589 60.1707L26.622 66.9678C26.4551 67.7058 25.5607 67.9983 24.99 67.5015L12.6892 56.7928C12.2727 56.4301 12.229 55.7985 12.5916 55.3819L16.6204 50.7542C16.983 50.3377 17.6147 50.294 18.0312 50.6566L27.8401 59.196Z" fill="#545A71"/>
<rect x="45.287" y="1.68632" width="71.0565" height="15.2106" rx="2.5" transform="rotate(7.6493 45.287 1.68632)" fill="#545A71" stroke="#545A71" stroke-width="3"/>
<ellipse cx="79.7831" cy="14.8775" rx="1.78306" ry="1.8775" fill="#404556"/>
</svg>
