<svg width="13" height="25" viewBox="0 0 13 25" fill="none" xmlns="http://www.w3.org/2000/svg">
<g id="mic">
<path id="Rectangle 11" d="M2.32812 4.57191C2.32812 2.18885 4.25997 0.257004 6.64303 0.257004C9.02608 0.257004 10.9579 2.18885 10.9579 4.5719V14.0141H2.32812V4.57191Z" fill="white"/>
<path id="Rectangle 14" d="M7.63867 23.3362C7.63867 23.8861 7.19286 24.332 6.64293 24.332C6.09299 24.332 5.64718 23.8861 5.64718 23.3362L5.64718 20.2048L7.63867 20.2048L7.63867 23.3362Z" fill="white"/>
<path id="Rectangle 12" d="M10.957 14.702C10.957 16.9814 9.10925 18.8291 6.8299 18.8291L6.45436 18.8291C4.17501 18.8291 2.32723 16.9814 2.32723 14.702L10.957 14.702Z" fill="white"/>
<path id="Rectangle 13" d="M1.00003 14.702V14.702C1.00003 17.7411 3.46374 20.2048 6.50288 20.2048L6.78231 20.2048C9.82145 20.2048 12.2852 17.7411 12.2852 14.702V14.702" stroke="white" stroke-linecap="round"/>
</g>
</svg>
