<svg width="271" height="216" viewBox="0 0 271 216" fill="none" xmlns="http://www.w3.org/2000/svg">
<path d="M63.6143 180.264C62.9583 180.264 62.3103 180.176 61.6703 180C61.0463 179.824 60.4703 179.584 59.9423 179.28C59.4143 178.96 58.9583 178.576 58.5743 178.128L60.4463 176.232C60.8463 176.68 61.3103 177.016 61.8383 177.24C62.3663 177.464 62.9503 177.576 63.5903 177.576C64.1023 177.576 64.4863 177.504 64.7423 177.36C65.0143 177.216 65.1503 177 65.1503 176.712C65.1503 176.392 65.0063 176.144 64.7183 175.968C64.4463 175.792 64.0863 175.648 63.6383 175.536C63.1903 175.408 62.7183 175.272 62.2223 175.128C61.7423 174.968 61.2783 174.768 60.8303 174.528C60.3823 174.272 60.0143 173.928 59.7263 173.496C59.4543 173.048 59.3183 172.472 59.3183 171.768C59.3183 171.032 59.4943 170.392 59.8463 169.848C60.2143 169.304 60.7343 168.88 61.4063 168.576C62.0783 168.272 62.8703 168.12 63.7823 168.12C64.7423 168.12 65.6063 168.288 66.3743 168.624C67.1583 168.96 67.8063 169.464 68.3183 170.136L66.4223 172.032C66.0703 171.6 65.6703 171.288 65.2223 171.096C64.7903 170.904 64.3183 170.808 63.8063 170.808C63.3423 170.808 62.9823 170.88 62.7263 171.024C62.4863 171.168 62.3663 171.368 62.3663 171.624C62.3663 171.912 62.5023 172.136 62.7743 172.296C63.0623 172.456 63.4303 172.6 63.8783 172.728C64.3263 172.84 64.7903 172.976 65.2703 173.136C65.7663 173.28 66.2303 173.488 66.6623 173.76C67.1103 174.032 67.4703 174.392 67.7423 174.84C68.0303 175.288 68.1743 175.864 68.1743 176.568C68.1743 177.704 67.7663 178.608 66.9503 179.28C66.1343 179.936 65.0223 180.264 63.6143 180.264ZM75.8383 180.24C74.6223 180.24 73.5423 179.984 72.5983 179.472C71.6543 178.944 70.9023 178.224 70.3423 177.312C69.7983 176.4 69.5263 175.36 69.5263 174.192C69.5263 173.04 69.7903 172.016 70.3183 171.12C70.8623 170.208 71.5983 169.488 72.5263 168.96C73.4543 168.416 74.4863 168.144 75.6223 168.144C76.7423 168.144 77.7263 168.4 78.5743 168.912C79.4383 169.408 80.1103 170.096 80.5903 170.976C81.0863 171.84 81.3343 172.824 81.3343 173.928C81.3343 174.136 81.3183 174.352 81.2863 174.576C81.2703 174.784 81.2303 175.024 81.1663 175.296L71.4223 175.32V172.968L79.7023 172.944L78.4303 173.928C78.3983 173.24 78.2703 172.664 78.0463 172.2C77.8383 171.736 77.5263 171.384 77.1103 171.144C76.7103 170.888 76.2143 170.76 75.6223 170.76C74.9983 170.76 74.4543 170.904 73.9903 171.192C73.5263 171.464 73.1663 171.856 72.9103 172.368C72.6703 172.864 72.5503 173.456 72.5503 174.144C72.5503 174.848 72.6783 175.464 72.9343 175.992C73.2063 176.504 73.5903 176.904 74.0863 177.192C74.5823 177.464 75.1583 177.6 75.8143 177.6C76.4063 177.6 76.9423 177.504 77.4223 177.312C77.9023 177.104 78.3183 176.8 78.6703 176.4L80.5183 178.248C79.9583 178.904 79.2703 179.4 78.4543 179.736C77.6543 180.072 76.7823 180.24 75.8383 180.24ZM91.0787 180V173.352C91.0787 172.664 90.8627 172.104 90.4307 171.672C89.9987 171.24 89.4387 171.024 88.7507 171.024C88.3027 171.024 87.9027 171.12 87.5507 171.312C87.1987 171.504 86.9187 171.776 86.7107 172.128C86.5187 172.48 86.4227 172.888 86.4227 173.352L85.1987 172.728C85.1987 171.816 85.3907 171.024 85.7747 170.352C86.1747 169.664 86.7187 169.128 87.4067 168.744C88.1107 168.36 88.9027 168.168 89.7827 168.168C90.6307 168.168 91.3907 168.384 92.0627 168.816C92.7347 169.232 93.2627 169.784 93.6467 170.472C94.0307 171.144 94.2227 171.872 94.2227 172.656V180H91.0787ZM83.2787 180V168.408H86.4227V180H83.2787ZM101.651 180.24C100.579 180.24 99.6193 179.976 98.7713 179.448C97.9233 178.92 97.2513 178.2 96.7553 177.288C96.2753 176.376 96.0353 175.352 96.0353 174.216C96.0353 173.064 96.2753 172.032 96.7553 171.12C97.2513 170.208 97.9153 169.488 98.7473 168.96C99.5953 168.432 100.563 168.168 101.651 168.168C102.483 168.168 103.227 168.336 103.883 168.672C104.555 169.008 105.091 169.48 105.491 170.088C105.907 170.68 106.131 171.352 106.163 172.104V176.232C106.131 176.984 105.915 177.664 105.515 178.272C105.115 178.88 104.579 179.36 103.907 179.712C103.235 180.064 102.483 180.24 101.651 180.24ZM102.179 177.336C102.771 177.336 103.283 177.208 103.715 176.952C104.163 176.68 104.507 176.312 104.747 175.848C105.003 175.368 105.131 174.816 105.131 174.192C105.131 173.584 105.003 173.048 104.747 172.584C104.507 172.104 104.163 171.736 103.715 171.48C103.283 171.208 102.779 171.072 102.203 171.072C101.611 171.072 101.091 171.208 100.643 171.48C100.211 171.752 99.8673 172.12 99.6113 172.584C99.3713 173.048 99.2513 173.584 99.2513 174.192C99.2513 174.816 99.3713 175.368 99.6113 175.848C99.8673 176.312 100.219 176.68 100.667 176.952C101.115 177.208 101.619 177.336 102.179 177.336ZM108.083 180H104.963V176.88L105.467 174.048L104.939 171.264V162.648H108.083V180ZM120.4 180.24C119.344 180.24 118.392 179.976 117.544 179.448C116.696 178.92 116.032 178.2 115.552 177.288C115.072 176.376 114.832 175.352 114.832 174.216C114.832 173.064 115.072 172.032 115.552 171.12C116.032 170.208 116.696 169.488 117.544 168.96C118.392 168.432 119.344 168.168 120.4 168.168C121.232 168.168 121.976 168.336 122.632 168.672C123.288 169.008 123.808 169.48 124.192 170.088C124.592 170.68 124.808 171.352 124.84 172.104V176.28C124.808 177.048 124.592 177.728 124.192 178.32C123.808 178.912 123.288 179.384 122.632 179.736C121.976 180.072 121.232 180.24 120.4 180.24ZM120.976 177.336C121.856 177.336 122.568 177.048 123.112 176.472C123.656 175.88 123.928 175.12 123.928 174.192C123.928 173.584 123.8 173.048 123.544 172.584C123.304 172.104 122.96 171.736 122.512 171.48C122.08 171.208 121.568 171.072 120.976 171.072C120.4 171.072 119.888 171.208 119.44 171.48C119.008 171.736 118.664 172.104 118.408 172.584C118.168 173.048 118.048 173.584 118.048 174.192C118.048 174.816 118.168 175.368 118.408 175.848C118.664 176.312 119.008 176.68 119.44 176.952C119.888 177.208 120.4 177.336 120.976 177.336ZM123.76 180V176.88L124.264 174.048L123.76 171.264V168.408H126.88V180H123.76ZM134.349 180V168.408H137.493V180H134.349ZM141.909 180V173.16C141.909 172.488 141.693 171.968 141.261 171.6C140.845 171.216 140.325 171.024 139.701 171.024C139.285 171.024 138.909 171.112 138.573 171.288C138.237 171.448 137.973 171.688 137.781 172.008C137.589 172.328 137.493 172.712 137.493 173.16L136.269 172.56C136.269 171.664 136.461 170.888 136.845 170.232C137.245 169.576 137.781 169.072 138.453 168.72C139.125 168.352 139.885 168.168 140.733 168.168C141.533 168.168 142.261 168.352 142.917 168.72C143.573 169.072 144.093 169.576 144.477 170.232C144.861 170.872 145.053 171.648 145.053 172.56V180H141.909ZM149.469 180V173.16C149.469 172.488 149.253 171.968 148.821 171.6C148.405 171.216 147.885 171.024 147.261 171.024C146.861 171.024 146.485 171.112 146.133 171.288C145.797 171.448 145.533 171.688 145.341 172.008C145.149 172.328 145.053 172.712 145.053 173.16L143.253 172.728C143.317 171.8 143.565 171 143.997 170.328C144.429 169.64 144.997 169.112 145.701 168.744C146.405 168.36 147.189 168.168 148.053 168.168C148.917 168.168 149.693 168.352 150.381 168.72C151.069 169.072 151.613 169.584 152.013 170.256C152.413 170.928 152.613 171.728 152.613 172.656V180H149.469ZM160.706 180.24C159.49 180.24 158.41 179.984 157.466 179.472C156.522 178.944 155.77 178.224 155.21 177.312C154.666 176.4 154.394 175.36 154.394 174.192C154.394 173.04 154.658 172.016 155.186 171.12C155.73 170.208 156.466 169.488 157.394 168.96C158.322 168.416 159.354 168.144 160.49 168.144C161.61 168.144 162.594 168.4 163.442 168.912C164.306 169.408 164.978 170.096 165.458 170.976C165.954 171.84 166.202 172.824 166.202 173.928C166.202 174.136 166.186 174.352 166.154 174.576C166.138 174.784 166.098 175.024 166.034 175.296L156.29 175.32V172.968L164.57 172.944L163.298 173.928C163.266 173.24 163.138 172.664 162.914 172.2C162.706 171.736 162.394 171.384 161.978 171.144C161.578 170.888 161.082 170.76 160.49 170.76C159.866 170.76 159.322 170.904 158.858 171.192C158.394 171.464 158.034 171.856 157.778 172.368C157.538 172.864 157.418 173.456 157.418 174.144C157.418 174.848 157.546 175.464 157.802 175.992C158.074 176.504 158.458 176.904 158.954 177.192C159.45 177.464 160.026 177.6 160.682 177.6C161.274 177.6 161.81 177.504 162.29 177.312C162.77 177.104 163.186 176.8 163.538 176.4L165.386 178.248C164.826 178.904 164.138 179.4 163.322 179.736C162.522 180.072 161.65 180.24 160.706 180.24ZM172.13 180.264C171.474 180.264 170.826 180.176 170.186 180C169.562 179.824 168.986 179.584 168.458 179.28C167.93 178.96 167.474 178.576 167.09 178.128L168.962 176.232C169.362 176.68 169.826 177.016 170.354 177.24C170.882 177.464 171.466 177.576 172.106 177.576C172.618 177.576 173.002 177.504 173.258 177.36C173.53 177.216 173.666 177 173.666 176.712C173.666 176.392 173.522 176.144 173.234 175.968C172.962 175.792 172.602 175.648 172.154 175.536C171.706 175.408 171.234 175.272 170.738 175.128C170.258 174.968 169.794 174.768 169.346 174.528C168.898 174.272 168.53 173.928 168.242 173.496C167.97 173.048 167.834 172.472 167.834 171.768C167.834 171.032 168.01 170.392 168.362 169.848C168.73 169.304 169.25 168.88 169.922 168.576C170.594 168.272 171.386 168.12 172.298 168.12C173.258 168.12 174.122 168.288 174.89 168.624C175.674 168.96 176.322 169.464 176.834 170.136L174.938 172.032C174.586 171.6 174.186 171.288 173.738 171.096C173.306 170.904 172.834 170.808 172.322 170.808C171.858 170.808 171.498 170.88 171.242 171.024C171.002 171.168 170.882 171.368 170.882 171.624C170.882 171.912 171.018 172.136 171.29 172.296C171.578 172.456 171.946 172.6 172.394 172.728C172.842 172.84 173.306 172.976 173.786 173.136C174.282 173.28 174.746 173.488 175.178 173.76C175.626 174.032 175.986 174.392 176.258 174.84C176.546 175.288 176.69 175.864 176.69 176.568C176.69 177.704 176.282 178.608 175.466 179.28C174.65 179.936 173.538 180.264 172.13 180.264ZM182.794 180.264C182.138 180.264 181.49 180.176 180.85 180C180.226 179.824 179.65 179.584 179.122 179.28C178.594 178.96 178.138 178.576 177.754 178.128L179.626 176.232C180.026 176.68 180.49 177.016 181.018 177.24C181.546 177.464 182.13 177.576 182.77 177.576C183.282 177.576 183.666 177.504 183.922 177.36C184.194 177.216 184.33 177 184.33 176.712C184.33 176.392 184.186 176.144 183.898 175.968C183.626 175.792 183.266 175.648 182.818 175.536C182.37 175.408 181.898 175.272 181.402 175.128C180.922 174.968 180.458 174.768 180.01 174.528C179.562 174.272 179.194 173.928 178.906 173.496C178.634 173.048 178.498 172.472 178.498 171.768C178.498 171.032 178.674 170.392 179.026 169.848C179.394 169.304 179.914 168.88 180.586 168.576C181.258 168.272 182.05 168.12 182.962 168.12C183.922 168.12 184.786 168.288 185.554 168.624C186.338 168.96 186.986 169.464 187.498 170.136L185.602 172.032C185.25 171.6 184.85 171.288 184.402 171.096C183.97 170.904 183.498 170.808 182.986 170.808C182.522 170.808 182.162 170.88 181.906 171.024C181.666 171.168 181.546 171.368 181.546 171.624C181.546 171.912 181.682 172.136 181.954 172.296C182.242 172.456 182.61 172.6 183.058 172.728C183.506 172.84 183.97 172.976 184.45 173.136C184.946 173.28 185.41 173.488 185.842 173.76C186.29 174.032 186.65 174.392 186.922 174.84C187.21 175.288 187.354 175.864 187.354 176.568C187.354 177.704 186.946 178.608 186.13 179.28C185.314 179.936 184.202 180.264 182.794 180.264ZM194.322 180.24C193.266 180.24 192.314 179.976 191.466 179.448C190.618 178.92 189.954 178.2 189.474 177.288C188.994 176.376 188.754 175.352 188.754 174.216C188.754 173.064 188.994 172.032 189.474 171.12C189.954 170.208 190.618 169.488 191.466 168.96C192.314 168.432 193.266 168.168 194.322 168.168C195.154 168.168 195.898 168.336 196.554 168.672C197.21 169.008 197.73 169.48 198.114 170.088C198.514 170.68 198.73 171.352 198.762 172.104V176.28C198.73 177.048 198.514 177.728 198.114 178.32C197.73 178.912 197.21 179.384 196.554 179.736C195.898 180.072 195.154 180.24 194.322 180.24ZM194.898 177.336C195.778 177.336 196.49 177.048 197.034 176.472C197.578 175.88 197.85 175.12 197.85 174.192C197.85 173.584 197.722 173.048 197.466 172.584C197.226 172.104 196.882 171.736 196.434 171.48C196.002 171.208 195.49 171.072 194.898 171.072C194.322 171.072 193.81 171.208 193.362 171.48C192.93 171.736 192.586 172.104 192.33 172.584C192.09 173.048 191.97 173.584 191.97 174.192C191.97 174.816 192.09 175.368 192.33 175.848C192.586 176.312 192.93 176.68 193.362 176.952C193.81 177.208 194.322 177.336 194.898 177.336ZM197.682 180V176.88L198.186 174.048L197.682 171.264V168.408H200.802V180H197.682ZM208.431 185.136C207.199 185.136 206.111 184.912 205.167 184.464C204.223 184.032 203.471 183.416 202.911 182.616L204.903 180.624C205.351 181.152 205.847 181.552 206.391 181.824C206.951 182.112 207.623 182.256 208.407 182.256C209.383 182.256 210.151 182.008 210.711 181.512C211.287 181.016 211.575 180.328 211.575 179.448V176.544L212.103 174L211.599 171.456V168.408H214.719V179.4C214.719 180.552 214.447 181.552 213.903 182.4C213.375 183.264 212.639 183.936 211.695 184.416C210.751 184.896 209.663 185.136 208.431 185.136ZM208.287 179.688C207.247 179.688 206.311 179.44 205.479 178.944C204.647 178.432 203.991 177.736 203.511 176.856C203.047 175.976 202.815 174.992 202.815 173.904C202.815 172.816 203.047 171.84 203.511 170.976C203.991 170.112 204.647 169.432 205.479 168.936C206.311 168.424 207.247 168.168 208.287 168.168C209.151 168.168 209.911 168.336 210.567 168.672C211.239 169.008 211.767 169.472 212.151 170.064C212.535 170.64 212.743 171.32 212.775 172.104V175.752C212.743 176.52 212.527 177.208 212.127 177.816C211.743 178.408 211.215 178.872 210.543 179.208C209.887 179.528 209.135 179.688 208.287 179.688ZM208.911 176.832C209.487 176.832 209.983 176.712 210.399 176.472C210.831 176.216 211.167 175.872 211.407 175.44C211.647 174.992 211.767 174.488 211.767 173.928C211.767 173.352 211.647 172.848 211.407 172.416C211.167 171.984 210.831 171.648 210.399 171.408C209.983 171.152 209.487 171.024 208.911 171.024C208.335 171.024 207.831 171.152 207.399 171.408C206.967 171.648 206.631 171.992 206.391 172.44C206.151 172.872 206.031 173.368 206.031 173.928C206.031 174.472 206.151 174.968 206.391 175.416C206.631 175.848 206.967 176.192 207.399 176.448C207.831 176.704 208.335 176.832 208.911 176.832ZM223.026 180.24C221.81 180.24 220.73 179.984 219.786 179.472C218.842 178.944 218.09 178.224 217.53 177.312C216.986 176.4 216.714 175.36 216.714 174.192C216.714 173.04 216.978 172.016 217.506 171.12C218.05 170.208 218.786 169.488 219.714 168.96C220.642 168.416 221.674 168.144 222.81 168.144C223.93 168.144 224.914 168.4 225.762 168.912C226.626 169.408 227.298 170.096 227.778 170.976C228.274 171.84 228.522 172.824 228.522 173.928C228.522 174.136 228.506 174.352 228.474 174.576C228.458 174.784 228.418 175.024 228.354 175.296L218.61 175.32V172.968L226.89 172.944L225.618 173.928C225.586 173.24 225.458 172.664 225.234 172.2C225.026 171.736 224.714 171.384 224.298 171.144C223.898 170.888 223.402 170.76 222.81 170.76C222.186 170.76 221.642 170.904 221.178 171.192C220.714 171.464 220.354 171.856 220.098 172.368C219.858 172.864 219.738 173.456 219.738 174.144C219.738 174.848 219.866 175.464 220.122 175.992C220.394 176.504 220.778 176.904 221.274 177.192C221.77 177.464 222.346 177.6 223.002 177.6C223.594 177.6 224.13 177.504 224.61 177.312C225.09 177.104 225.506 176.8 225.858 176.4L227.706 178.248C227.146 178.904 226.458 179.4 225.642 179.736C224.842 180.072 223.97 180.24 223.026 180.24ZM100.252 210V193.584H103.396V210H100.252ZM97.5403 201.168V198.408H106.108V201.168H97.5403ZM113.043 210.24C111.875 210.24 110.819 209.976 109.875 209.448C108.947 208.904 108.203 208.176 107.643 207.264C107.099 206.336 106.827 205.304 106.827 204.168C106.827 203.032 107.099 202.016 107.643 201.12C108.187 200.208 108.931 199.488 109.875 198.96C110.819 198.416 111.867 198.144 113.019 198.144C114.203 198.144 115.259 198.416 116.187 198.96C117.131 199.488 117.875 200.208 118.419 201.12C118.963 202.016 119.235 203.032 119.235 204.168C119.235 205.304 118.963 206.336 118.419 207.264C117.875 208.176 117.131 208.904 116.187 209.448C115.259 209.976 114.211 210.24 113.043 210.24ZM113.019 207.312C113.611 207.312 114.131 207.184 114.579 206.928C115.043 206.656 115.395 206.288 115.635 205.824C115.891 205.344 116.019 204.8 116.019 204.192C116.019 203.584 115.891 203.048 115.635 202.584C115.379 202.12 115.027 201.76 114.579 201.504C114.131 201.232 113.611 201.096 113.019 201.096C112.443 201.096 111.931 201.232 111.483 201.504C111.035 201.76 110.683 202.12 110.427 202.584C110.171 203.048 110.043 203.584 110.043 204.192C110.043 204.8 110.171 205.344 110.427 205.824C110.683 206.288 111.035 206.656 111.483 206.928C111.931 207.184 112.443 207.312 113.019 207.312ZM133.123 208.008C132.515 208.008 131.947 207.856 131.419 207.552C130.907 207.232 130.491 206.8 130.171 206.256C129.851 205.712 129.691 205.112 129.691 204.456C129.691 203.768 129.851 203.152 130.171 202.608C130.491 202.064 130.907 201.632 131.419 201.312C131.947 200.976 132.515 200.808 133.123 200.808C133.891 200.808 134.507 200.984 134.971 201.336C135.435 201.688 135.667 202.256 135.667 203.04V205.8C135.667 206.568 135.435 207.128 134.971 207.48C134.523 207.832 133.907 208.008 133.123 208.008ZM133.291 206.016C133.739 206.016 134.091 205.864 134.347 205.56C134.619 205.256 134.755 204.88 134.755 204.432C134.755 203.952 134.619 203.568 134.347 203.28C134.091 202.992 133.739 202.848 133.291 202.848C132.843 202.848 132.483 203 132.211 203.304C131.939 203.592 131.803 203.968 131.803 204.432C131.803 204.88 131.939 205.256 132.211 205.56C132.483 205.864 132.843 206.016 133.291 206.016ZM135.019 207.888V206.04L135.283 204.336L135.019 202.68V200.976H137.059V207.888H135.019ZM137.323 208.92L138.931 210.552C138.211 211.176 137.395 211.648 136.483 211.968C135.587 212.288 134.627 212.448 133.603 212.448C132.467 212.448 131.403 212.248 130.411 211.848C129.435 211.448 128.579 210.88 127.843 210.144C127.107 209.424 126.531 208.584 126.115 207.624C125.715 206.648 125.515 205.592 125.515 204.456C125.515 203.304 125.723 202.24 126.139 201.264C126.555 200.288 127.139 199.44 127.891 198.72C128.643 197.984 129.515 197.416 130.507 197.016C131.515 196.6 132.595 196.392 133.747 196.392C135.267 196.392 136.611 196.728 137.779 197.4C138.947 198.072 139.859 199.008 140.515 200.208C141.171 201.392 141.499 202.76 141.499 204.312C141.499 205.048 141.427 205.712 141.283 206.304C141.155 206.88 140.931 207.408 140.611 207.888L138.091 207.84C138.331 207.536 138.523 207.2 138.667 206.832C138.827 206.464 138.947 206.064 139.027 205.632C139.107 205.184 139.147 204.704 139.147 204.192C139.147 202.992 138.931 201.984 138.499 201.168C138.083 200.352 137.475 199.736 136.675 199.32C135.875 198.888 134.915 198.672 133.795 198.672C132.643 198.672 131.627 198.904 130.747 199.368C129.883 199.832 129.211 200.496 128.731 201.36C128.251 202.224 128.011 203.264 128.011 204.48C128.011 205.648 128.243 206.664 128.707 207.528C129.171 208.376 129.819 209.032 130.651 209.496C131.483 209.944 132.451 210.168 133.555 210.168C134.323 210.168 135.019 210.064 135.643 209.856C136.267 209.648 136.827 209.336 137.323 208.92ZM136.003 206.016H140.611V207.888H136.003V206.016ZM147.196 210.096L142.348 198.408H145.756L148.972 207.336H147.82L151.156 198.408H154.588L149.428 210.072L147.196 210.096ZM143.98 214.848L147.508 207.384L149.428 210.072L147.316 214.848H143.98ZM161.209 210.24C159.993 210.24 158.913 209.984 157.969 209.472C157.025 208.944 156.273 208.224 155.713 207.312C155.169 206.4 154.897 205.36 154.897 204.192C154.897 203.04 155.161 202.016 155.689 201.12C156.233 200.208 156.969 199.488 157.897 198.96C158.825 198.416 159.857 198.144 160.993 198.144C162.113 198.144 163.097 198.4 163.945 198.912C164.809 199.408 165.481 200.096 165.961 200.976C166.457 201.84 166.705 202.824 166.705 203.928C166.705 204.136 166.689 204.352 166.657 204.576C166.641 204.784 166.601 205.024 166.537 205.296L156.793 205.32V202.968L165.073 202.944L163.801 203.928C163.769 203.24 163.641 202.664 163.417 202.2C163.209 201.736 162.897 201.384 162.481 201.144C162.081 200.888 161.585 200.76 160.993 200.76C160.369 200.76 159.825 200.904 159.361 201.192C158.897 201.464 158.537 201.856 158.281 202.368C158.041 202.864 157.921 203.456 157.921 204.144C157.921 204.848 158.049 205.464 158.305 205.992C158.577 206.504 158.961 206.904 159.457 207.192C159.953 207.464 160.529 207.6 161.185 207.6C161.777 207.6 162.313 207.504 162.793 207.312C163.273 207.104 163.689 206.8 164.041 206.4L165.889 208.248C165.329 208.904 164.641 209.4 163.825 209.736C163.025 210.072 162.153 210.24 161.209 210.24ZM173.498 210.24C172.442 210.24 171.49 209.976 170.642 209.448C169.794 208.92 169.13 208.2 168.65 207.288C168.17 206.376 167.93 205.352 167.93 204.216C167.93 203.064 168.17 202.032 168.65 201.12C169.13 200.208 169.794 199.488 170.642 198.96C171.49 198.432 172.442 198.168 173.498 198.168C174.33 198.168 175.074 198.336 175.73 198.672C176.386 199.008 176.906 199.48 177.29 200.088C177.69 200.68 177.906 201.352 177.938 202.104V206.28C177.906 207.048 177.69 207.728 177.29 208.32C176.906 208.912 176.386 209.384 175.73 209.736C175.074 210.072 174.33 210.24 173.498 210.24ZM174.074 207.336C174.954 207.336 175.666 207.048 176.21 206.472C176.754 205.88 177.026 205.12 177.026 204.192C177.026 203.584 176.898 203.048 176.642 202.584C176.402 202.104 176.058 201.736 175.61 201.48C175.178 201.208 174.666 201.072 174.074 201.072C173.498 201.072 172.986 201.208 172.538 201.48C172.106 201.736 171.762 202.104 171.506 202.584C171.266 203.048 171.146 203.584 171.146 204.192C171.146 204.816 171.266 205.368 171.506 205.848C171.762 206.312 172.106 206.68 172.538 206.952C172.986 207.208 173.498 207.336 174.074 207.336ZM176.858 210V206.88L177.362 204.048L176.858 201.264V198.408H179.978V210H176.858ZM190.559 210V203.352C190.559 202.664 190.343 202.104 189.911 201.672C189.479 201.24 188.919 201.024 188.231 201.024C187.783 201.024 187.383 201.12 187.031 201.312C186.679 201.504 186.399 201.776 186.191 202.128C185.999 202.48 185.903 202.888 185.903 203.352L184.679 202.728C184.679 201.816 184.871 201.024 185.255 200.352C185.639 199.664 186.167 199.128 186.839 198.744C187.527 198.36 188.311 198.168 189.191 198.168C190.071 198.168 190.847 198.36 191.519 198.744C192.207 199.128 192.743 199.656 193.127 200.328C193.511 201 193.703 201.776 193.703 202.656V210H190.559ZM182.759 210V192.648H185.903V210H182.759Z" fill="#545A71"/>
<path d="M176.168 25.5033C176.168 25.5033 164.281 39.2717 164.281 42.4009C164.281 45.53 174.385 65.5567 201.725 66.8084C207.663 67.0803 231.443 69.3117 240.952 53.0401C250.462 36.7684 234.415 23 234.415 23" stroke="#545A71" stroke-width="3"/>
<path d="M164.262 68.5079C164.262 68.5079 147.044 88.1814 147.044 92.6527C147.044 97.124 161.049 133.773 201.509 133.773C232.631 133.773 261.16 116.733 261.16 99.011C261.16 81.2894 248.625 64.9309 248.625 64.9309" stroke="#545A71" stroke-width="3"/>
<path d="M186.271 39.2717C186.271 40.3086 185.485 39.5 184.5 39.5C183.515 39.5 182.705 40.3086 182.705 39.2717C182.705 38.2348 183.503 37.3942 184.488 37.3942C185.473 37.3942 186.271 38.2348 186.271 39.2717Z" fill="#545A71"/>
<path d="M201.724 39.2717C201.724 40.3086 200.926 39.5 199.941 39.5C198.957 39.5 198.158 40.3086 198.158 39.2717C198.158 38.2348 198.957 37.3942 199.941 37.3942C200.926 37.3942 201.724 38.2348 201.724 39.2717Z" fill="#545A71"/>
<ellipse cx="229.065" cy="126.263" rx="9.50966" ry="10.0134" fill="#545A71"/>
<ellipse cx="177.951" cy="126.263" rx="9.50966" ry="10.0134" fill="#545A71"/>
<ellipse cx="143.349" cy="68.6325" rx="5.34918" ry="5.63251" fill="#545A71" stroke="#545A71" stroke-width="2"/>
<ellipse cx="263.944" cy="62.2583" rx="5.94354" ry="6.25834" fill="#545A71" stroke="#545A71" stroke-width="2"/>
<path d="M84.246 27.4106C84.246 27.4106 95.6929 40.6687 95.6929 43.682C95.6929 46.6952 85.963 65.9798 59.6358 67.1851C53.9179 67.4469 31.0196 69.5957 21.8623 53.9269C12.705 38.2582 28.1579 25 28.1579 25" stroke="#545A71" stroke-width="3"/>
<path d="M95.711 68.8216C95.711 68.8216 112.291 87.7661 112.291 92.0717C112.291 96.3773 98.8052 131.668 59.8443 131.668C29.875 131.668 2.40317 115.259 2.40317 98.1944C2.40317 81.1294 14.4739 65.3771 14.4739 65.3771" stroke="#545A71" stroke-width="3"/>
<path d="M74.5172 40.6687C74.5172 41.6672 75.2745 40.8886 76.2228 40.8886C77.171 40.8886 77.9512 41.6672 77.9512 40.6687C77.9512 39.6702 77.1824 38.8608 76.2342 38.8608C75.2859 38.8608 74.5172 39.6702 74.5172 40.6687Z" fill="#545A71"/>
<path d="M59.6368 40.6687C59.6368 41.6672 60.4055 40.8886 61.3538 40.8886C62.3021 40.8886 63.0708 41.6672 63.0708 40.6687C63.0708 39.6702 62.3021 38.8608 61.3538 38.8608C60.4055 38.8608 59.6368 39.6702 59.6368 40.6687Z" fill="#545A71"/>
<ellipse rx="9.15728" ry="9.64231" transform="matrix(-1 0 0 1 33.3095 124.436)" fill="#545A71"/>
<ellipse rx="9.15728" ry="9.64231" transform="matrix(-1 0 0 1 82.5292 124.436)" fill="#545A71"/>
<ellipse rx="5.15097" ry="5.4238" transform="matrix(-1 0 0 1 96.1508 93.4238)" fill="#545A71" stroke="#545A71" stroke-width="2"/>
<ellipse rx="5.7233" ry="6.02644" transform="matrix(-1 0 0 1 65.7235 96.0264)" fill="#545A71" stroke="#545A71" stroke-width="2"/>
<rect x="88.4688" y="5.50403" width="3.3094" height="11.9138" transform="rotate(30 88.4688 5.50403)" fill="#545A71"/>
<rect x="97.4756" y="12.896" width="3.3094" height="11.9138" transform="rotate(60 97.4756 12.896)" fill="#545A71"/>
<rect x="77.1592" y="3.07703" width="3.3094" height="11.9138" fill="#545A71"/>
<rect x="163.533" y="9.18103" width="3.3094" height="11.9138" transform="rotate(-30 163.533 9.18103)" fill="#545A71"/>
<rect x="174.438" y="5.07703" width="3.3094" height="11.9138" fill="#545A71"/>
<rect x="155.776" y="17.7621" width="3.3094" height="11.9138" transform="rotate(-60 155.776 17.7621)" fill="#545A71"/>
</svg>
