<svg width="271" height="137" viewBox="0 0 271 137" fill="none" xmlns="http://www.w3.org/2000/svg">
<g id="Group 61">
<g id="Group 35">
<g id="Group 32">
<g id="Group 30">
<path id="Line 1" d="M176.168 25.5033C176.168 25.5033 164.281 39.2717 164.281 42.4009C164.281 45.53 174.385 65.5567 201.725 66.8084C207.663 67.0803 231.443 69.3117 240.952 53.0401C250.462 36.7684 234.415 23 234.415 23" stroke="#545A71" stroke-width="3"/>
<path id="Line 2" d="M164.262 68.5079C164.262 68.5079 147.044 88.1814 147.044 92.6527C147.044 97.124 161.049 133.773 201.509 133.773C232.631 133.773 261.16 116.733 261.16 99.011C261.16 81.2894 248.625 64.9309 248.625 64.9309" stroke="#545A71" stroke-width="3"/>
<path id="Ellipse 48" d="M186.271 39.2717C186.271 40.3086 185.485 39.5 184.5 39.5C183.515 39.5 182.705 40.3086 182.705 39.2717C182.705 38.2348 183.503 37.3942 184.488 37.3942C185.473 37.3942 186.271 38.2348 186.271 39.2717Z" fill="#545A71"/>
<path id="Ellipse 49" d="M201.724 39.2717C201.724 40.3086 200.926 39.5 199.941 39.5C198.957 39.5 198.158 40.3086 198.158 39.2717C198.158 38.2348 198.957 37.3942 199.941 37.3942C200.926 37.3942 201.724 38.2348 201.724 39.2717Z" fill="#545A71"/>
<ellipse id="Ellipse 50" cx="229.065" cy="126.263" rx="9.50966" ry="10.0134" fill="#545A71"/>
<ellipse id="Ellipse 54" cx="177.951" cy="126.263" rx="9.50966" ry="10.0134" fill="#545A71"/>
<ellipse id="Ellipse 52" cx="143.349" cy="68.6325" rx="5.34918" ry="5.63251" fill="#545A71" stroke="#545A71" stroke-width="2"/>
<ellipse id="Ellipse 53" cx="263.944" cy="62.2583" rx="5.94354" ry="6.25834" fill="#545A71" stroke="#545A71" stroke-width="2"/>
</g>
</g>
</g>
<g id="Group 36">
<g id="Group 32_2">
<g id="Group 30_2">
<path id="Line 1_2" d="M84.246 27.4106C84.246 27.4106 95.6929 40.6687 95.6929 43.682C95.6929 46.6952 85.963 65.9798 59.6358 67.1851C53.9179 67.4469 31.0196 69.5957 21.8623 53.9269C12.705 38.2582 28.1579 25 28.1579 25" stroke="#545A71" stroke-width="3"/>
<path id="Line 2_2" d="M95.711 68.8216C95.711 68.8216 112.291 87.7661 112.291 92.0717C112.291 96.3773 98.8052 131.668 59.8443 131.668C29.875 131.668 2.40317 115.259 2.40317 98.1944C2.40317 81.1294 14.4739 65.3771 14.4739 65.3771" stroke="#545A71" stroke-width="3"/>
<path id="Ellipse 48_2" d="M74.5172 40.6687C74.5172 41.6672 75.2745 40.8886 76.2228 40.8886C77.171 40.8886 77.9512 41.6672 77.9512 40.6687C77.9512 39.6702 77.1824 38.8608 76.2342 38.8608C75.2859 38.8608 74.5172 39.6702 74.5172 40.6687Z" fill="#545A71"/>
<path id="Ellipse 49_2" d="M59.6368 40.6687C59.6368 41.6672 60.4055 40.8886 61.3538 40.8886C62.3021 40.8886 63.0708 41.6672 63.0708 40.6687C63.0708 39.6702 62.3021 38.8608 61.3538 38.8608C60.4055 38.8608 59.6368 39.6702 59.6368 40.6687Z" fill="#545A71"/>
<ellipse id="Ellipse 50_2" rx="9.15728" ry="9.64231" transform="matrix(-1 0 0 1 33.3095 124.436)" fill="#545A71"/>
<ellipse id="Ellipse 54_2" rx="9.15728" ry="9.64231" transform="matrix(-1 0 0 1 82.5292 124.436)" fill="#545A71"/>
<ellipse id="Ellipse 52_2" rx="5.15097" ry="5.4238" transform="matrix(-1 0 0 1 96.1508 93.4238)" fill="#545A71" stroke="#545A71" stroke-width="2"/>
<ellipse id="Ellipse 53_2" rx="5.7233" ry="6.02644" transform="matrix(-1 0 0 1 65.7235 96.0264)" fill="#545A71" stroke="#545A71" stroke-width="2"/>
</g>
</g>
</g>
<g id="Group 37">
<rect id="Rectangle 76" x="88.4688" y="5.50403" width="3.3094" height="11.9138" transform="rotate(30 88.4688 5.50403)" fill="#545A71"/>
<rect id="Rectangle 77" x="97.4756" y="12.896" width="3.3094" height="11.9138" transform="rotate(60 97.4756 12.896)" fill="#545A71"/>
<rect id="Rectangle 78" x="77.1592" y="3.07703" width="3.3094" height="11.9138" fill="#545A71"/>
</g>
<g id="Group 38">
<rect id="Rectangle 76_2" x="163.533" y="9.18103" width="3.3094" height="11.9138" transform="rotate(-30 163.533 9.18103)" fill="#545A71"/>
<rect id="Rectangle 77_2" x="174.438" y="5.07703" width="3.3094" height="11.9138" fill="#545A71"/>
<rect id="Rectangle 78_2" x="155.776" y="17.7621" width="3.3094" height="11.9138" transform="rotate(-60 155.776 17.7621)" fill="#545A71"/>
</g>
</g>
</svg>
