<svg width="118" height="116" viewBox="0 0 118 116" fill="none" xmlns="http://www.w3.org/2000/svg">
<g id="Group 32">
<g id="Group 30">
<path id="Line 1" d="M31.1681 4.50334C31.1681 4.50334 19.2808 18.2717 19.2808 21.4009C19.2808 24.53 29.3851 44.5567 56.7253 45.8084C62.6633 46.0803 86.4427 48.3117 95.9524 32.0401C105.462 15.7684 89.4145 2 89.4145 2" stroke="#545A71" stroke-width="3"/>
<path id="Line 2" d="M19.2619 47.5079C19.2619 47.5079 2.04443 67.1814 2.04443 71.6527C2.04443 76.124 16.0487 112.773 56.5089 112.773C87.6314 112.773 116.16 95.7326 116.16 78.011C116.16 60.2894 103.625 43.9309 103.625 43.9309" stroke="#545A71" stroke-width="3"/>
<path id="Ellipse 48" d="M41.2717 18.2717C41.2717 19.3086 40.4734 20.1492 39.4886 20.1492C38.5039 20.1492 37.7056 19.3086 37.7056 18.2717C38.5 17.5 38.5 17.5 39.4886 16.3942C40.4734 16.3942 41.2717 17.2348 41.2717 18.2717Z" fill="#545A71"/>
<path id="Ellipse 49" d="M56.7243 18.2717C56.7243 19.3086 55.926 20.1492 54.9413 20.1492C53.9565 20.1492 53.1582 19.3086 53.1582 18.2717C53.1582 17.2348 53.9565 16.3942 54.9413 16.3942C56 17.5 56 17.5 56.7243 18.2717Z" fill="#545A71"/>
<ellipse id="Ellipse 50" cx="84.0648" cy="105.263" rx="9.50966" ry="10.0134" fill="#545A71"/>
<ellipse id="Ellipse 54" cx="32.9511" cy="105.263" rx="9.50966" ry="10.0134" fill="#545A71"/>
<ellipse id="Ellipse 52" cx="42.3492" cy="83.6325" rx="5.34918" ry="5.63251" stroke="#545A71" stroke-width="2"/>
<ellipse id="Ellipse 53" cx="70.9435" cy="83.2583" rx="5.94354" ry="6.25834" stroke="#545A71" stroke-width="2"/>
</g>
</g>
</svg>
