<svg width="29" height="30" viewBox="0 0 29 30" fill="none" xmlns="http://www.w3.org/2000/svg">
<g id="notifications">
<path id="Rectangle 34" d="M4.64802 17.6161C3.1859 12.1594 6.42417 6.55054 11.8809 5.08842C17.3376 3.62629 22.9465 6.86456 24.4086 12.3213L25.0658 14.7739C25.2188 15.3449 25.5274 15.8622 25.9571 16.2682L26.7087 16.9781C26.9673 17.2224 27.153 17.5337 27.2451 17.8773C27.5197 18.902 26.9116 19.9553 25.8869 20.2299L7.09538 25.265C6.09667 25.5326 5.07013 24.94 4.80253 23.9413C4.70267 23.5686 4.72039 23.1742 4.85327 22.812L5.19376 21.8838C5.41857 21.271 5.44855 20.6037 5.27961 19.9732L4.64802 17.6161Z" fill="white"/>
<ellipse id="Ellipse 25" cx="11.6508" cy="4.58648" rx="1.66052" ry="1.63374" transform="rotate(-15 11.6508 4.58648)" fill="white"/>
<ellipse id="Ellipse 26" rx="3.40902" ry="3.36135" transform="matrix(0.999992 -0.00403686 -0.00409411 0.999992 20.4314 21.2091)" fill="white"/>
</g>
</svg>
