<svg width="25" height="25" viewBox="0 0 25 25" fill="none" xmlns="http://www.w3.org/2000/svg">
<path id="settings" fill-rule="evenodd" clip-rule="evenodd" d="M14.0544 1.37873C13.4585 -0.23863 11.171 -0.238629 10.5751 1.37873C10.1452 2.5456 8.711 2.96671 7.71845 2.21751C6.34273 1.17908 4.41835 2.41581 4.79144 4.09859C5.06062 5.31267 4.08179 6.44229 2.84177 6.34864C1.12301 6.21882 0.172744 8.29962 1.39639 9.51356C2.27922 10.3894 2.0665 11.8689 0.972689 12.4605C-0.5434 13.2805 -0.217853 15.5447 1.46785 15.9044C2.68403 16.1639 3.30496 17.5236 2.70464 18.6126C1.87256 20.1221 3.37057 21.8509 4.98313 21.2421C6.14654 20.8029 7.40396 21.611 7.48774 22.8517C7.60385 24.5715 9.79871 25.2159 10.8261 23.832C11.5674 22.8335 13.0621 22.8335 13.8034 23.832C14.8308 25.2159 17.0257 24.5715 17.1418 22.8517C17.2256 21.611 18.483 20.8029 19.6464 21.2421C21.259 21.8509 22.757 20.1221 21.9249 18.6126C21.3246 17.5236 21.9455 16.1639 23.1617 15.9044C24.8474 15.5447 25.1729 13.2805 23.6568 12.4605C22.563 11.8689 22.3503 10.3894 23.2331 9.51356C24.4568 8.29962 23.5065 6.21882 21.7878 6.34864C20.5477 6.44229 19.5689 5.31267 19.8381 4.09859C20.2112 2.41581 18.2868 1.17908 16.9111 2.21751C15.9185 2.96671 14.4844 2.5456 14.0544 1.37873ZM12.3148 18.2981C15.4688 18.2981 18.0256 15.7413 18.0256 12.5873C18.0256 9.43331 15.4688 6.87649 12.3148 6.87649C9.16077 6.87649 6.60394 9.43331 6.60394 12.5873C6.60394 15.7413 9.16077 18.2981 12.3148 18.2981Z" fill="white"/>
</svg>
